<svg width="106" height="34" viewBox="0 0 106 34" fill="none" xmlns="http://www.w3.org/2000/svg">
<g id="polaris">
<path id="Vector" d="M98.4103 26.612C95.8699 26.612 93.8605 26.0914 92.3821 25.0503C90.9037 23.9883 90.0917 22.5099 89.9459 20.6151H92.8819C93.0276 21.8228 93.5586 22.7182 94.4748 23.3012C95.391 23.8842 96.7341 24.1757 98.504 24.1757C101.69 24.1757 103.283 23.1554 103.283 21.1148C103.283 20.2819 103.033 19.6468 102.533 19.2096C102.054 18.7515 101.232 18.4183 100.066 18.2101L95.974 17.4605C92.58 16.8358 90.8829 15.2116 90.8829 12.588C90.8829 10.9014 91.518 9.56872 92.7882 8.59006C94.0584 7.6114 95.797 7.12207 98.0042 7.12207C100.274 7.12207 102.085 7.62181 103.439 8.62129C104.813 9.62077 105.604 11.0159 105.813 12.8066H102.939C102.71 11.703 102.19 10.8909 101.377 10.3704C100.565 9.829 99.4306 9.5583 97.973 9.5583C96.5779 9.5583 95.5055 9.80817 94.7559 10.3079C94.0063 10.7868 93.6315 11.4948 93.6315 12.4318C93.6315 13.1398 93.871 13.702 94.3499 14.1184C94.8496 14.5141 95.6513 14.816 96.7549 15.0242L100.815 15.7738C102.606 16.107 103.918 16.69 104.751 17.5229C105.584 18.3558 106 19.4802 106 20.8962C106 22.7077 105.344 24.1133 104.032 25.1127C102.721 26.1122 100.847 26.612 98.4103 26.612Z" fill="white"/>
<path id="Vector_2" d="M83.9882 26.2366V7.49632H86.9242V26.2366H83.9882ZM85.4562 4.68528C84.9356 4.68528 84.488 4.50829 84.1132 4.1543C83.7592 3.7795 83.5822 3.33181 83.5822 2.81125C83.5822 2.29069 83.7592 1.85341 84.1132 1.49943C84.488 1.12462 84.9356 0.937221 85.4562 0.937221C85.9768 0.937221 86.414 1.12462 86.768 1.49943C87.1428 1.85341 87.3302 2.29069 87.3302 2.81125C87.3302 3.33181 87.1428 3.7795 86.768 4.1543C86.414 4.50829 85.9768 4.68528 85.4562 4.68528Z" fill="white"/>
<path id="Vector_3" d="M70.0906 26.2371V10.6202H68.5289V7.49679H71.7772V10.9325H73.089C73.6304 9.82892 74.4425 8.96478 75.5253 8.34011C76.6289 7.69461 77.9303 7.37186 79.4295 7.37186H80.9599V9.87056H79.2733C77.316 9.87056 75.7855 10.4536 74.6819 11.6197C73.5783 12.7857 73.0265 14.3682 73.0265 16.3672V26.2371H70.0906Z" fill="white"/>
<path id="Vector_4" d="M56.203 26.5807C54.1207 26.5807 52.4758 26.0602 51.2681 25.019C50.0604 23.9571 49.4565 22.5932 49.4565 20.9274C49.4565 19.1367 50.0395 17.752 51.2056 16.7733C52.3925 15.7947 54.0999 15.3053 56.3279 15.3053H63.0744V14.4308C63.0744 11.2241 61.3566 9.62077 57.9209 9.62077C55.1306 9.62077 53.4544 10.6827 52.8922 12.8066H49.8938C50.1853 11.0159 51.0494 9.62077 52.4862 8.62129C53.9438 7.62181 55.7865 7.12207 58.0146 7.12207C60.5549 7.12207 62.5018 7.73633 63.8553 8.96486C65.2087 10.1726 65.8855 11.9217 65.8855 14.2121V23.1138H67.3222V26.2372H64.0739V23.4261H62.7621C62.1166 24.384 61.2212 25.1544 60.076 25.7374C58.9308 26.2996 57.6398 26.5807 56.203 26.5807ZM56.5778 24.1445C57.7647 24.1445 58.8475 23.8946 59.8261 23.3949C60.8256 22.8951 61.6169 22.2288 62.1999 21.3959C62.7829 20.5422 63.0744 19.6052 63.0744 18.5849V17.5542H56.5466C53.6522 17.5542 52.2051 18.6369 52.2051 20.8025C52.2051 21.8228 52.5903 22.6349 53.3607 23.2387C54.152 23.8426 55.2243 24.1445 56.5778 24.1445Z" fill="white"/>
<path id="Vector_5" d="M43.1813 26.2364V0H46.1173V26.2364H43.1813Z" fill="white"/>
<path id="Vector_6" d="M31.1012 26.612C29.1855 26.612 27.5197 26.2163 26.1038 25.4251C24.6878 24.613 23.5842 23.4782 22.793 22.0206C22.0226 20.563 21.6373 18.8452 21.6373 16.867C21.6373 14.8889 22.0226 13.171 22.793 11.7134C23.5634 10.2559 24.6566 9.13144 26.0725 8.34019C27.5093 7.52811 29.1855 7.12207 31.1012 7.12207C33.0585 7.12207 34.7347 7.5177 36.1298 8.30895C37.5458 9.10021 38.6389 10.2246 39.4094 11.6822C40.1798 13.1398 40.565 14.8681 40.565 16.867C40.565 18.8452 40.1798 20.5734 39.4094 22.0518C38.6389 23.5094 37.5458 24.6338 36.1298 25.4251C34.7139 26.2163 33.0377 26.612 31.1012 26.612ZM31.1012 24.0508C33.1626 24.0508 34.766 23.4261 35.9112 22.1768C37.0564 20.9066 37.6291 19.1367 37.6291 16.867C37.6291 14.5765 37.0564 12.8066 35.9112 11.5573C34.766 10.3079 33.1626 9.68324 31.1012 9.68324C29.0606 9.68324 27.4572 10.3183 26.2912 11.5885C25.1459 12.8379 24.5733 14.5974 24.5733 16.867C24.5733 19.1367 25.1459 20.9066 26.2912 22.1768C27.4572 23.4261 29.0606 24.0508 31.1012 24.0508Z" fill="white"/>
<path id="Vector_7" d="M1.56169 33.7333V10.6203H0V7.49687H3.24832V10.3079H4.56014C5.18481 9.26679 6.02813 8.47553 7.09008 7.93415C8.15203 7.39276 9.43261 7.12207 10.9318 7.12207C12.785 7.12207 14.3676 7.5177 15.6794 8.30895C16.9912 9.07939 17.9907 10.1934 18.6778 11.651C19.3858 13.1085 19.7398 14.8472 19.7398 16.867C19.7398 18.8868 19.3962 20.6255 18.7091 22.0831C18.0219 23.5406 17.0328 24.6651 15.7418 25.4563C14.4717 26.2268 12.9516 26.612 11.1817 26.612C9.66166 26.612 8.32902 26.31 7.18378 25.7062C6.05936 25.0815 5.20564 24.1966 4.6226 23.0513H4.49767V33.7333H1.56169ZM10.5258 24.1133C12.5039 24.1133 14.0448 23.4782 15.1484 22.208C16.252 20.9378 16.8038 19.1575 16.8038 16.867C16.8038 14.5765 16.252 12.7962 15.1484 11.526C14.0448 10.2559 12.5039 9.62077 10.5258 9.62077C8.71424 9.62077 7.25666 10.1413 6.15306 11.1825C5.04947 12.2236 4.49767 13.6083 4.49767 15.3366V18.3975C4.49767 20.1257 5.04947 21.5104 6.15306 22.5516C7.25666 23.5927 8.71424 24.1133 10.5258 24.1133Z" fill="white"/>
</g>
</svg>
